<mxfile host="app.diagrams.net" modified="2023-10-24T23:35:23.645Z" agent="Mozilla/5.0 (Macintosh; Intel Mac OS X 10_15_7) AppleWebKit/605.1.15 (KHTML, like Gecko) Version/17.0 Safari/605.1.15" version="22.0.7" etag="PmPc69xf5lu87axWeCit" type="github">
  <diagram name="Page-1" id="sK2T9jXtHZjiBQlUE95x">
    <mxGraphModel>
      <root>
        <mxCell id="0" />
        <mxCell id="1" parent="0" />
      </root>
    </mxGraphModel>
  </diagram>
</mxfile>
